<svg width="29" height="13" viewBox="0 0 29 13" fill="none" xmlns="http://www.w3.org/2000/svg">
<g clip-path="url(#clip0_21_60)">
<path opacity="0.35" d="M4.54932 0.5H21.5493C23.4823 0.5 25.0493 2.067 25.0493 4V9C25.0493 10.933 23.4823 12.5 21.5493 12.5H4.54932C2.61632 12.5 1.04932 10.933 1.04932 9V4C1.04932 2.067 2.61632 0.5 4.54932 0.5Z" stroke="black"/>
<path opacity="0.4" d="M26.5494 5V9.22034C27.3984 8.86291 27.9506 8.0314 27.9506 7.11017C27.9506 6.18894 27.3984 5.35744 26.5494 5Z" fill="black"/>
<path d="M2.54944 4C2.54944 2.89543 3.44487 2 4.54944 2H21.5495C22.654 2 23.5495 2.89543 23.5495 4V9C23.5495 10.1046 22.654 11 21.5495 11H4.54944C3.44487 11 2.54944 10.1046 2.54944 9V4Z" fill="black"/>
</g>
<defs>
<clipPath id="clip0_21_60">
<rect width="28" height="13" fill="white" transform="translate(0.5)"/>
</clipPath>
</defs>
</svg>
