<svg width="91" height="90" viewBox="0 0 91 90" fill="none" xmlns="http://www.w3.org/2000/svg">
<g clip-path="url(#clip0_353_824)">
<ellipse cx="44.5" cy="45.989" rx="45.5" ry="45" fill="#D9D9D9"/>
<path d="M44.3182 83.2192C63.8992 83.2192 79.7727 66.6599 79.7727 46.2329C79.7727 25.8059 63.8992 9.24658 44.3182 9.24658C24.7372 9.24658 8.86365 25.8059 8.86365 46.2329C8.86365 66.6599 24.7372 83.2192 44.3182 83.2192Z" stroke="white" stroke-width="2" stroke-linecap="round" stroke-linejoin="round"/>
<path d="M63.6212 69.3493V64.2123C63.6212 61.4875 62.5836 58.8743 60.7367 56.9475C58.8897 55.0208 56.3847 53.9384 53.7727 53.9384H36.5379C33.9259 53.9384 31.4209 55.0208 29.5739 56.9475C27.727 58.8743 26.6894 61.4875 26.6894 64.2123V69.3493" stroke="white" stroke-width="2" stroke-linecap="round" stroke-linejoin="round"/>
<path d="M45.1553 43.6644C50.5945 43.6644 55.0038 39.0646 55.0038 33.3904C55.0038 27.7163 50.5945 23.1165 45.1553 23.1165C39.7161 23.1165 35.3068 27.7163 35.3068 33.3904C35.3068 39.0646 39.7161 43.6644 45.1553 43.6644Z" stroke="white" stroke-width="2" stroke-linecap="round" stroke-linejoin="round"/>
</g>
<defs>
<clipPath id="clip0_353_824">
<rect width="91" height="90" fill="white"/>
</clipPath>
</defs>
</svg>
