<svg width="43" height="43" viewBox="0 0 43 43" fill="none" xmlns="http://www.w3.org/2000/svg">
<circle cx="21.5" cy="21.5" r="21.5" fill="#D9D9D9"/>
<path d="M21.5 38.7C30.9993 38.7 38.7 30.9993 38.7 21.5C38.7 12.0007 30.9993 4.3 21.5 4.3C12.0007 4.3 4.29999 12.0007 4.29999 21.5C4.29999 30.9993 12.0007 38.7 21.5 38.7Z" stroke="white" stroke-width="2" stroke-linecap="round" stroke-linejoin="round"/>
<g clip-path="url(#clip0_252_2126)">
<path d="M30.8645 32.25V29.8611C30.8645 28.594 30.3611 27.3787 29.4651 26.4827C28.5691 25.5867 27.3538 25.0833 26.0867 25.0833H17.7256C16.4584 25.0833 15.2432 25.5867 14.3472 26.4827C13.4512 27.3787 12.9478 28.594 12.9478 29.8611V32.25" stroke="white" stroke-width="2" stroke-linecap="round" stroke-linejoin="round"/>
<path d="M21.9061 20.3056C24.5448 20.3056 26.6839 18.1665 26.6839 15.5278C26.6839 12.8891 24.5448 10.75 21.9061 10.75C19.2674 10.75 17.1284 12.8891 17.1284 15.5278C17.1284 18.1665 19.2674 20.3056 21.9061 20.3056Z" stroke="white" stroke-width="2" stroke-linecap="round" stroke-linejoin="round"/>
</g>
<defs>
<clipPath id="clip0_252_2126">
<rect width="28.6667" height="28.6667" fill="white" transform="translate(11.7534 7.16667)"/>
</clipPath>
</defs>
</svg>
