<svg width="70" height="72" viewBox="0 0 70 72" fill="none" xmlns="http://www.w3.org/2000/svg">
<rect x="0.5" y="0.5" width="69" height="71" rx="9.5" fill="white"/>
<rect x="0.5" y="0.5" width="69" height="71" rx="9.5" stroke="#00565C"/>
<g clip-path="url(#clip0_375_1090)">
<path d="M37.249 44.25H36.249C36.1139 44.2474 35.9854 44.1912 35.8916 44.0939C35.7979 43.9966 35.7466 43.8661 35.749 43.731V27.518C35.7478 27.4511 35.7598 27.3847 35.7843 27.3225C35.8087 27.2603 35.8452 27.2035 35.8917 27.1554C35.9381 27.1073 35.9936 27.0688 36.0549 27.0422C36.1162 27.0155 36.1821 27.0012 36.249 27H37.249" stroke="#00565C" stroke-width="1.5" stroke-linecap="round" stroke-linejoin="round"/>
<path d="M33.499 36H35.749" stroke="#00565C" stroke-width="1.5" stroke-linecap="round" stroke-linejoin="round"/>
<path d="M40.249 27C40.249 27.2955 40.3072 27.5881 40.4203 27.861C40.5334 28.134 40.6991 28.3821 40.908 28.591C41.117 28.7999 41.365 28.9657 41.638 29.0787C41.911 29.1918 42.2035 29.25 42.499 29.25C42.7945 29.25 43.0871 29.1918 43.3601 29.0787C43.633 28.9657 43.8811 28.7999 44.09 28.591C44.2989 28.3821 44.4647 28.134 44.5778 27.861C44.6908 27.5881 44.749 27.2955 44.749 27C44.749 26.7045 44.6908 26.4119 44.5778 26.139C44.4647 25.866 44.2989 25.6179 44.09 25.409C43.8811 25.2001 43.633 25.0343 43.3601 24.9213C43.0871 24.8082 42.7945 24.75 42.499 24.75C42.2035 24.75 41.911 24.8082 41.638 24.9213C41.365 25.0343 41.117 25.2001 40.908 25.409C40.6991 25.6179 40.5334 25.866 40.4203 26.139C40.3072 26.4119 40.249 26.7045 40.249 27Z" stroke="#00565C" stroke-width="1.5" stroke-linecap="round" stroke-linejoin="round"/>
<path d="M46.249 33C46.0262 32.1653 45.542 31.4238 44.8675 30.884C44.1929 30.3441 43.3633 30.0344 42.5 30C41.6365 30.0342 40.8067 30.3438 40.1319 30.8837C39.4572 31.4235 38.9729 32.1651 38.75 33H46.249Z" stroke="#00565C" stroke-width="1.5" stroke-linecap="round" stroke-linejoin="round"/>
<path d="M40.249 41.25C40.249 41.5455 40.3072 41.8381 40.4203 42.111C40.5334 42.384 40.6991 42.6321 40.908 42.841C41.117 43.0499 41.365 43.2157 41.638 43.3287C41.911 43.4418 42.2035 43.5 42.499 43.5C42.7945 43.5 43.0871 43.4418 43.3601 43.3287C43.633 43.2157 43.8811 43.0499 44.09 42.841C44.2989 42.6321 44.4647 42.384 44.5778 42.111C44.6908 41.8381 44.749 41.5455 44.749 41.25C44.749 40.9545 44.6908 40.6619 44.5778 40.389C44.4647 40.116 44.2989 39.8679 44.09 39.659C43.8811 39.4501 43.633 39.2843 43.3601 39.1713C43.0871 39.0582 42.7945 39 42.499 39C42.2035 39 41.911 39.0582 41.638 39.1713C41.365 39.2843 41.117 39.4501 40.908 39.659C40.6991 39.8679 40.5334 40.116 40.4203 40.389C40.3072 40.6619 40.249 40.9545 40.249 41.25Z" stroke="#00565C" stroke-width="1.5" stroke-linecap="round" stroke-linejoin="round"/>
<path d="M46.249 47.25C46.0261 46.4151 45.5419 45.6735 44.8671 45.1337C44.1923 44.5938 43.3625 44.2842 42.499 44.25C41.6356 44.2842 40.8057 44.5938 40.1309 45.1337C39.4562 45.6735 38.9719 46.4151 38.749 47.25H46.249Z" stroke="#00565C" stroke-width="1.5" stroke-linecap="round" stroke-linejoin="round"/>
<path d="M25.249 33C25.249 33.7957 25.5651 34.5587 26.1277 35.1213C26.6903 35.6839 27.4534 36 28.249 36C29.0447 36 29.8077 35.6839 30.3703 35.1213C30.933 34.5587 31.249 33.7957 31.249 33C31.249 32.2043 30.933 31.4413 30.3703 30.8787C29.8077 30.3161 29.0447 30 28.249 30C27.4534 30 26.6903 30.3161 26.1277 30.8787C25.5651 31.4413 25.249 32.2043 25.249 33Z" stroke="#00565C" stroke-width="1.5" stroke-linecap="round" stroke-linejoin="round"/>
<path d="M23.749 42C23.749 40.8065 24.2231 39.6619 25.067 38.818C25.911 37.9741 27.0556 37.5 28.249 37.5C29.4425 37.5 30.5871 37.9741 31.431 38.818C32.2749 39.6619 32.749 40.8065 32.749 42H23.749Z" stroke="#00565C" stroke-width="1.5" stroke-linecap="round" stroke-linejoin="round"/>
</g>
<defs>
<clipPath id="clip0_375_1090">
<rect width="24" height="24" fill="white" transform="translate(23 24)"/>
</clipPath>
</defs>
</svg>
