<svg width="393" height="133" viewBox="0 0 393 133" fill="none" xmlns="http://www.w3.org/2000/svg">
<rect width="393" height="133" fill="#00565C"/>
<g clip-path="url(#clip0_402_853)">
<path d="M374 27C375.657 27 377 25.6569 377 24C377 22.3431 375.657 21 374 21C372.343 21 371 22.3431 371 24C371 25.6569 372.343 27 374 27Z" fill="#00565C" stroke="white" stroke-width="2" stroke-linecap="round" stroke-linejoin="round"/>
<g filter="url(#filter0_d_402_853)">
<path d="M381.4 27C381.267 27.3016 381.227 27.6362 381.286 27.9606C381.345 28.285 381.499 28.5843 381.73 28.82L381.79 28.88C381.976 29.0657 382.123 29.2863 382.224 29.5291C382.325 29.7719 382.377 30.0322 382.377 30.295C382.377 30.5578 382.325 30.8181 382.224 31.0609C382.123 31.3037 381.976 31.5243 381.79 31.71C381.604 31.896 381.384 32.0435 381.141 32.1441C380.898 32.2448 380.638 32.2966 380.375 32.2966C380.112 32.2966 379.852 32.2448 379.609 32.1441C379.366 32.0435 379.146 31.896 378.96 31.71L378.9 31.65C378.664 31.4195 378.365 31.2648 378.041 31.206C377.716 31.1472 377.382 31.1869 377.08 31.32C376.784 31.4468 376.532 31.6572 376.354 31.9255C376.177 32.1938 376.081 32.5082 376.08 32.83V33C376.08 33.5304 375.869 34.0391 375.494 34.4142C375.119 34.7893 374.61 35 374.08 35C373.55 35 373.041 34.7893 372.666 34.4142C372.291 34.0391 372.08 33.5304 372.08 33V32.91C372.072 32.579 371.965 32.258 371.773 31.9887C371.58 31.7194 371.311 31.5143 371 31.4C370.698 31.2669 370.364 31.2272 370.039 31.286C369.715 31.3448 369.416 31.4995 369.18 31.73L369.12 31.79C368.934 31.976 368.714 32.1235 368.471 32.2241C368.228 32.3248 367.968 32.3766 367.705 32.3766C367.442 32.3766 367.182 32.3248 366.939 32.2241C366.696 32.1235 366.476 31.976 366.29 31.79C366.104 31.6043 365.957 31.3837 365.856 31.1409C365.755 30.8981 365.703 30.6378 365.703 30.375C365.703 30.1122 365.755 29.8519 365.856 29.6091C365.957 29.3663 366.104 29.1457 366.29 28.96L366.35 28.9C366.581 28.6643 366.735 28.365 366.794 28.0406C366.853 27.7162 366.813 27.3816 366.68 27.08C366.553 26.7842 366.343 26.532 366.074 26.3543C365.806 26.1766 365.492 26.0813 365.17 26.08H365C364.47 26.08 363.961 25.8693 363.586 25.4942C363.211 25.1191 363 24.6104 363 24.08C363 23.5496 363.211 23.0409 363.586 22.6658C363.961 22.2907 364.47 22.08 365 22.08H365.09C365.421 22.0723 365.742 21.9651 366.011 21.7725C366.281 21.5799 366.486 21.3107 366.6 21C366.733 20.6984 366.773 20.3638 366.714 20.0394C366.655 19.715 366.501 19.4157 366.27 19.18L366.21 19.12C366.024 18.9343 365.877 18.7137 365.776 18.4709C365.675 18.2281 365.623 17.9678 365.623 17.705C365.623 17.4422 365.675 17.1819 365.776 16.9391C365.877 16.6963 366.024 16.4757 366.21 16.29C366.396 16.104 366.616 15.9565 366.859 15.8559C367.102 15.7552 367.362 15.7034 367.625 15.7034C367.888 15.7034 368.148 15.7552 368.391 15.8559C368.634 15.9565 368.854 16.104 369.04 16.29L369.1 16.35C369.336 16.5805 369.635 16.7352 369.959 16.794C370.284 16.8528 370.618 16.8131 370.92 16.68H371C371.296 16.5532 371.548 16.3428 371.726 16.0745C371.903 15.8062 371.999 15.4918 372 15.17V15C372 14.4696 372.211 13.9609 372.586 13.5858C372.961 13.2107 373.47 13 374 13C374.53 13 375.039 13.2107 375.414 13.5858C375.789 13.9609 376 14.4696 376 15V15.09C376.001 15.4118 376.097 15.7262 376.274 15.9945C376.452 16.2628 376.704 16.4732 377 16.6C377.302 16.7331 377.636 16.7728 377.961 16.714C378.285 16.6552 378.584 16.5005 378.82 16.27L378.88 16.21C379.066 16.024 379.286 15.8765 379.529 15.7759C379.772 15.6752 380.032 15.6234 380.295 15.6234C380.558 15.6234 380.818 15.6752 381.061 15.7759C381.304 15.8765 381.524 16.024 381.71 16.21C381.896 16.3957 382.043 16.6163 382.144 16.8591C382.245 17.1019 382.297 17.3622 382.297 17.625C382.297 17.8878 382.245 18.1481 382.144 18.3909C382.043 18.6337 381.896 18.8543 381.71 19.04L381.65 19.1C381.419 19.3357 381.265 19.635 381.206 19.9594C381.147 20.2838 381.187 20.6184 381.32 20.92V21C381.447 21.2958 381.657 21.548 381.926 21.7257C382.194 21.9034 382.508 21.9987 382.83 22H383C383.53 22 384.039 22.2107 384.414 22.5858C384.789 22.9609 385 23.4696 385 24C385 24.5304 384.789 25.0391 384.414 25.4142C384.039 25.7893 383.53 26 383 26H382.91C382.588 26.0013 382.274 26.0966 382.006 26.2743C381.737 26.452 381.527 26.7042 381.4 27Z" stroke="white" stroke-width="2" stroke-linecap="round" stroke-linejoin="round" shape-rendering="crispEdges"/>
</g>
</g>
<defs>
<filter id="filter0_d_402_853" x="358" y="12" width="32" height="32" filterUnits="userSpaceOnUse" color-interpolation-filters="sRGB">
<feFlood flood-opacity="0" result="BackgroundImageFix"/>
<feColorMatrix in="SourceAlpha" type="matrix" values="0 0 0 0 0 0 0 0 0 0 0 0 0 0 0 0 0 0 127 0" result="hardAlpha"/>
<feOffset dy="4"/>
<feGaussianBlur stdDeviation="2"/>
<feComposite in2="hardAlpha" operator="out"/>
<feColorMatrix type="matrix" values="0 0 0 0 0 0 0 0 0 0 0 0 0 0 0 0 0 0 0.25 0"/>
<feBlend mode="normal" in2="BackgroundImageFix" result="effect1_dropShadow_402_853"/>
<feBlend mode="normal" in="SourceGraphic" in2="effect1_dropShadow_402_853" result="shape"/>
</filter>
<clipPath id="clip0_402_853">
<rect width="24" height="24" fill="white" transform="translate(362 12)"/>
</clipPath>
</defs>
</svg>
