<svg width="78" height="80" viewBox="0 0 78 80" fill="none" xmlns="http://www.w3.org/2000/svg">
<g filter="url(#filter0_d_252_1326)">
<rect x="4" width="70" height="72" rx="10" fill="white"/>
<rect x="4.5" y="0.5" width="69" height="71" rx="9.5" stroke="#00565C"/>
<g clip-path="url(#clip0_252_1326)">
<path d="M41.249 44.25H40.249C40.1139 44.2474 39.9854 44.1912 39.8916 44.0939C39.7979 43.9966 39.7466 43.8661 39.749 43.731V27.518C39.7478 27.4511 39.7598 27.3847 39.7843 27.3225C39.8087 27.2603 39.8452 27.2035 39.8917 27.1554C39.9381 27.1073 39.9936 27.0688 40.0549 27.0422C40.1162 27.0155 40.1821 27.0012 40.249 27H41.249" stroke="#00565C" stroke-width="1.5" stroke-linecap="round" stroke-linejoin="round"/>
<path d="M37.499 36H39.749" stroke="#00565C" stroke-width="1.5" stroke-linecap="round" stroke-linejoin="round"/>
<path d="M44.249 27C44.249 27.2955 44.3072 27.5881 44.4203 27.861C44.5334 28.134 44.6991 28.3821 44.908 28.591C45.117 28.7999 45.365 28.9657 45.638 29.0787C45.911 29.1918 46.2035 29.25 46.499 29.25C46.7945 29.25 47.0871 29.1918 47.3601 29.0787C47.633 28.9657 47.8811 28.7999 48.09 28.591C48.2989 28.3821 48.4647 28.134 48.5778 27.861C48.6908 27.5881 48.749 27.2955 48.749 27C48.749 26.7045 48.6908 26.4119 48.5778 26.139C48.4647 25.866 48.2989 25.6179 48.09 25.409C47.8811 25.2001 47.633 25.0343 47.3601 24.9213C47.0871 24.8082 46.7945 24.75 46.499 24.75C46.2035 24.75 45.911 24.8082 45.638 24.9213C45.365 25.0343 45.117 25.2001 44.908 25.409C44.6991 25.6179 44.5334 25.866 44.4203 26.139C44.3072 26.4119 44.249 26.7045 44.249 27Z" stroke="#00565C" stroke-width="1.5" stroke-linecap="round" stroke-linejoin="round"/>
<path d="M50.249 33C50.0262 32.1653 49.542 31.4238 48.8675 30.884C48.1929 30.3441 47.3633 30.0344 46.5 30C45.6365 30.0342 44.8067 30.3438 44.1319 30.8837C43.4572 31.4235 42.9729 32.1651 42.75 33H50.249Z" stroke="#00565C" stroke-width="1.5" stroke-linecap="round" stroke-linejoin="round"/>
<path d="M44.249 41.25C44.249 41.5455 44.3072 41.8381 44.4203 42.111C44.5334 42.384 44.6991 42.6321 44.908 42.841C45.117 43.0499 45.365 43.2157 45.638 43.3287C45.911 43.4418 46.2035 43.5 46.499 43.5C46.7945 43.5 47.0871 43.4418 47.3601 43.3287C47.633 43.2157 47.8811 43.0499 48.09 42.841C48.2989 42.6321 48.4647 42.384 48.5778 42.111C48.6908 41.8381 48.749 41.5455 48.749 41.25C48.749 40.9545 48.6908 40.6619 48.5778 40.389C48.4647 40.116 48.2989 39.8679 48.09 39.659C47.8811 39.4501 47.633 39.2843 47.3601 39.1713C47.0871 39.0582 46.7945 39 46.499 39C46.2035 39 45.911 39.0582 45.638 39.1713C45.365 39.2843 45.117 39.4501 44.908 39.659C44.6991 39.8679 44.5334 40.116 44.4203 40.389C44.3072 40.6619 44.249 40.9545 44.249 41.25Z" stroke="#00565C" stroke-width="1.5" stroke-linecap="round" stroke-linejoin="round"/>
<path d="M50.249 47.25C50.0261 46.4151 49.5419 45.6735 48.8671 45.1337C48.1923 44.5938 47.3625 44.2842 46.499 44.25C45.6356 44.2842 44.8057 44.5938 44.1309 45.1337C43.4562 45.6735 42.9719 46.4151 42.749 47.25H50.249Z" stroke="#00565C" stroke-width="1.5" stroke-linecap="round" stroke-linejoin="round"/>
<path d="M29.249 33C29.249 33.7957 29.5651 34.5587 30.1277 35.1213C30.6903 35.6839 31.4534 36 32.249 36C33.0447 36 33.8077 35.6839 34.3703 35.1213C34.933 34.5587 35.249 33.7957 35.249 33C35.249 32.2043 34.933 31.4413 34.3703 30.8787C33.8077 30.3161 33.0447 30 32.249 30C31.4534 30 30.6903 30.3161 30.1277 30.8787C29.5651 31.4413 29.249 32.2043 29.249 33Z" stroke="#00565C" stroke-width="1.5" stroke-linecap="round" stroke-linejoin="round"/>
<path d="M27.749 42C27.749 40.8065 28.2231 39.6619 29.067 38.818C29.911 37.9741 31.0556 37.5 32.249 37.5C33.4425 37.5 34.5871 37.9741 35.431 38.818C36.2749 39.6619 36.749 40.8065 36.749 42H27.749Z" stroke="#00565C" stroke-width="1.5" stroke-linecap="round" stroke-linejoin="round"/>
</g>
</g>
<defs>
<filter id="filter0_d_252_1326" x="0" y="0" width="78" height="80" filterUnits="userSpaceOnUse" color-interpolation-filters="sRGB">
<feFlood flood-opacity="0" result="BackgroundImageFix"/>
<feColorMatrix in="SourceAlpha" type="matrix" values="0 0 0 0 0 0 0 0 0 0 0 0 0 0 0 0 0 0 127 0" result="hardAlpha"/>
<feOffset dy="4"/>
<feGaussianBlur stdDeviation="2"/>
<feComposite in2="hardAlpha" operator="out"/>
<feColorMatrix type="matrix" values="0 0 0 0 0 0 0 0 0 0 0 0 0 0 0 0 0 0 0.4 0"/>
<feBlend mode="normal" in2="BackgroundImageFix" result="effect1_dropShadow_252_1326"/>
<feBlend mode="normal" in="SourceGraphic" in2="effect1_dropShadow_252_1326" result="shape"/>
</filter>
<clipPath id="clip0_252_1326">
<rect width="24" height="24" fill="white" transform="translate(27 24)"/>
</clipPath>
</defs>
</svg>
