<svg width="31" height="30" viewBox="0 0 31 30" fill="none" xmlns="http://www.w3.org/2000/svg">
<path d="M26.7657 5.76252C26.1273 5.12378 25.3692 4.61708 24.5349 4.27138C23.7006 3.92568 22.8063 3.74774 21.9032 3.74774C21.0001 3.74774 20.1059 3.92568 19.2715 4.27138C18.4372 4.61708 17.6792 5.12378 17.0407 5.76252L15.7157 7.08752L14.3907 5.76252C13.1011 4.47291 11.352 3.74841 9.52822 3.74841C7.70443 3.74841 5.95534 4.47291 4.66572 5.76252C3.37611 7.05214 2.65161 8.80123 2.65161 10.625C2.65161 12.4488 3.37611 14.1979 4.66572 15.4875L5.99072 16.8125L15.7157 26.5375L25.4407 16.8125L26.7657 15.4875C27.4045 14.8491 27.9112 14.091 28.2569 13.2567C28.6026 12.4224 28.7805 11.5281 28.7805 10.625C28.7805 9.72191 28.6026 8.82765 28.2569 7.99333C27.9112 7.15901 27.4045 6.40097 26.7657 5.76252Z" stroke="#D7D5D5" stroke-width="2" stroke-linecap="round" stroke-linejoin="round"/>
</svg>
