<svg width="31" height="30" viewBox="0 0 31 30" fill="none" xmlns="http://www.w3.org/2000/svg">
<path d="M26.6996 5.76252C26.0628 5.12378 25.3067 4.61708 24.4745 4.27138C23.6423 3.92568 22.7503 3.74774 21.8495 3.74774C20.9487 3.74774 20.0567 3.92568 19.2245 4.27138C18.3923 4.61708 17.6361 5.12378 16.9993 5.76252L15.6777 7.08752L14.356 5.76252C13.0697 4.47291 11.3251 3.74841 9.50589 3.74841C7.68673 3.74841 5.94207 4.47291 4.65573 5.76252C3.36939 7.05214 2.64673 8.80123 2.64673 10.625C2.64673 12.4488 3.36939 14.1979 4.65573 15.4875L5.97737 16.8125L15.6777 26.5375L25.378 16.8125L26.6996 15.4875C27.3368 14.8491 27.8422 14.091 28.187 13.2567C28.5318 12.4224 28.7093 11.5281 28.7093 10.625C28.7093 9.72191 28.5318 8.82765 28.187 7.99333C27.8422 7.15901 27.3368 6.40097 26.6996 5.76252Z" stroke="#D7D5D5" stroke-width="2" stroke-linecap="round" stroke-linejoin="round"/>
</svg>
