<svg width="26" height="25" viewBox="0 0 26 25" fill="none" xmlns="http://www.w3.org/2000/svg">
<g clip-path="url(#clip0_252_1689)">
<path d="M16.8519 21.875V19.7917C16.8519 18.6866 16.4129 17.6268 15.6315 16.8454C14.8501 16.064 13.7903 15.625 12.6853 15.625H5.3936C4.28853 15.625 3.22872 16.064 2.44732 16.8454C1.66592 17.6268 1.22693 18.6866 1.22693 19.7917V21.875" stroke="#00565C" stroke-width="2" stroke-linecap="round" stroke-linejoin="round"/>
<path d="M9.03944 11.4583C11.3406 11.4583 13.2061 9.59285 13.2061 7.29167C13.2061 4.99048 11.3406 3.125 9.03944 3.125C6.73825 3.125 4.87277 4.99048 4.87277 7.29167C4.87277 9.59285 6.73825 11.4583 9.03944 11.4583Z" stroke="#00565C" stroke-width="2" stroke-linecap="round" stroke-linejoin="round"/>
</g>
<defs>
<clipPath id="clip0_252_1689">
<rect width="25" height="25" fill="white" transform="translate(0.185272)"/>
</clipPath>
</defs>
</svg>
