<svg width="31" height="30" viewBox="0 0 31 30" fill="none" xmlns="http://www.w3.org/2000/svg">
<g clip-path="url(#clip0_252_1846)">
<path d="M26.6326 20V10C26.6321 9.56159 26.5167 9.13101 26.2979 8.75145C26.079 8.37189 25.7645 8.0567 25.3858 7.8375L16.658 2.8375C16.2789 2.61808 15.8489 2.50256 15.4111 2.50256C14.9734 2.50256 14.5434 2.61808 14.1643 2.8375L5.43652 7.8375C5.05782 8.0567 4.74326 8.37189 4.52442 8.75145C4.30558 9.13101 4.19015 9.56159 4.1897 10V20C4.19015 20.4384 4.30558 20.869 4.52442 21.2485C4.74326 21.6281 5.05782 21.9433 5.43652 22.1625L14.1643 27.1625C14.5434 27.3819 14.9734 27.4974 15.4111 27.4974C15.8489 27.4974 16.2789 27.3819 16.658 27.1625L25.3858 22.1625C25.7645 21.9433 26.079 21.6281 26.2979 21.2485C26.5167 20.869 26.6321 20.4384 26.6326 20Z" stroke="#D7D5D5" stroke-width="2" stroke-linecap="round" stroke-linejoin="round"/>
<path d="M4.52637 8.70001L15.4112 15.0125L26.296 8.70001" stroke="#D7D5D5" stroke-width="2" stroke-linecap="round" stroke-linejoin="round"/>
<path d="M15.4111 27.6V15" stroke="#D7D5D5" stroke-width="2" stroke-linecap="round" stroke-linejoin="round"/>
</g>
<defs>
<clipPath id="clip0_252_1846">
<rect width="29.9239" height="30" fill="white" transform="translate(0.449219)"/>
</clipPath>
</defs>
</svg>
