<svg width="19" height="13" viewBox="0 0 19 13" fill="none" xmlns="http://www.w3.org/2000/svg">
<g clip-path="url(#clip0_21_53)">
<path d="M10.5 3.5C10.5 2.94772 10.9477 2.5 11.5 2.5H12.5C13.0523 2.5 13.5 2.94772 13.5 3.5V11.5C13.5 12.0523 13.0523 12.5 12.5 12.5H11.5C10.9477 12.5 10.5 12.0523 10.5 11.5V3.5Z" fill="black"/>
<path d="M15.5 1.5C15.5 0.947715 15.9477 0.5 16.5 0.5H17.5C18.0523 0.5 18.5 0.947715 18.5 1.5V11.5C18.5 12.0523 18.0523 12.5 17.5 12.5H16.5C15.9477 12.5 15.5 12.0523 15.5 11.5V1.5Z" fill="black"/>
<path d="M5.5 7C5.5 6.44772 5.94772 6 6.5 6H7.5C8.05228 6 8.5 6.44772 8.5 7V11.5C8.5 12.0523 8.05228 12.5 7.5 12.5H6.5C5.94772 12.5 5.5 12.0523 5.5 11.5V7Z" fill="black"/>
<path d="M0.5 9.5C0.5 8.94772 0.947715 8.5 1.5 8.5H2.5C3.05228 8.5 3.5 8.94772 3.5 9.5V11.5C3.5 12.0523 3.05228 12.5 2.5 12.5H1.5C0.947715 12.5 0.5 12.0523 0.5 11.5V9.5Z" fill="black"/>
</g>
<defs>
<clipPath id="clip0_21_53">
<rect width="18" height="12" fill="white" transform="translate(0.5 0.5)"/>
</clipPath>
</defs>
</svg>
