<svg width="41" height="13" viewBox="0 0 41 13" fill="none" xmlns="http://www.w3.org/2000/svg">
<g clip-path="url(#clip0_21_48)">
<path d="M4.28846 12.5V3.21094H4.15564L1.35095 5.19531V3.29688L4.29627 1.22656H6.30408V12.5H4.28846ZM11.8747 12.5V3.21094H11.7419L8.93721 5.19531V3.29688L11.8825 1.22656H13.8903V12.5H11.8747ZM18.1562 5.19531C17.4453 5.19531 16.9141 4.64844 16.9141 3.96094C16.9141 3.26562 17.4453 2.72656 18.1562 2.72656C18.875 2.72656 19.3984 3.26562 19.3984 3.96094C19.3984 4.64844 18.875 5.19531 18.1562 5.19531ZM18.1562 10.9922C17.4453 10.9922 16.9141 10.4531 16.9141 9.75781C16.9141 9.0625 17.4453 8.52344 18.1562 8.52344C18.875 8.52344 19.3984 9.0625 19.3984 9.75781C19.3984 10.4531 18.875 10.9922 18.1562 10.9922ZM25.6644 12.7266C23.1956 12.7266 21.5784 11.3828 21.43 9.45312L21.4222 9.35938H23.3441L23.3519 9.44531C23.4613 10.3984 24.3441 11.0781 25.6644 11.0781C26.9691 11.0781 27.8363 10.3516 27.8363 9.30469V9.28906C27.8363 8.10156 26.9613 7.44531 25.5159 7.44531H24.1878V5.94531H25.4769C26.7191 5.94531 27.5472 5.24219 27.5472 4.25781V4.24219C27.5472 3.21094 26.8519 2.60156 25.6488 2.60156C24.4613 2.60156 23.6409 3.23438 23.5394 4.24219L23.5316 4.32031H21.6566L21.6644 4.23438C21.8363 2.28125 23.3753 1 25.6488 1C27.9691 1 29.4769 2.21094 29.4769 3.97656V3.99219C29.4769 5.39062 28.4691 6.32031 27.1175 6.60156V6.64062C28.7738 6.79688 29.8753 7.78125 29.8753 9.34375V9.35938C29.8753 11.3438 28.1644 12.7266 25.6644 12.7266ZM35.8209 12.7812C33.1413 12.7812 31.5319 10.5078 31.5319 6.86719V6.85156C31.5319 3.21094 33.1413 0.945312 35.8209 0.945312C38.5006 0.945312 40.1256 3.21094 40.1256 6.85156V6.86719C40.1256 10.5078 38.5006 12.7812 35.8209 12.7812ZM35.8209 11.1484C37.2584 11.1484 38.0944 9.53906 38.0944 6.86719V6.85156C38.0944 4.17969 37.2584 2.58594 35.8209 2.58594C34.3834 2.58594 33.5631 4.17969 33.5631 6.85156V6.86719C33.5631 9.53906 34.3834 11.1484 35.8209 11.1484Z" fill="black"/>
</g>
<defs>
<clipPath id="clip0_21_48">
<rect width="40" height="13" fill="white" transform="translate(0.5)"/>
</clipPath>
</defs>
</svg>
