<svg width="40" height="13" viewBox="0 0 40 13" fill="none" xmlns="http://www.w3.org/2000/svg">
<g clip-path="url(#clip0_252_1247)">
<path d="M3.78846 12.5V3.21094H3.65564L0.850952 5.19531V3.29688L3.79627 1.22656H5.80408V12.5H3.78846ZM11.3747 12.5V3.21094H11.2419L8.43721 5.19531V3.29688L11.3825 1.22656H13.3903V12.5H11.3747ZM17.6562 5.19531C16.9453 5.19531 16.4141 4.64844 16.4141 3.96094C16.4141 3.26562 16.9453 2.72656 17.6562 2.72656C18.375 2.72656 18.8984 3.26562 18.8984 3.96094C18.8984 4.64844 18.375 5.19531 17.6562 5.19531ZM17.6562 10.9922C16.9453 10.9922 16.4141 10.4531 16.4141 9.75781C16.4141 9.0625 16.9453 8.52344 17.6562 8.52344C18.375 8.52344 18.8984 9.0625 18.8984 9.75781C18.8984 10.4531 18.375 10.9922 17.6562 10.9922ZM25.1644 12.7266C22.6956 12.7266 21.0784 11.3828 20.93 9.45312L20.9222 9.35938H22.8441L22.8519 9.44531C22.9613 10.3984 23.8441 11.0781 25.1644 11.0781C26.4691 11.0781 27.3363 10.3516 27.3363 9.30469V9.28906C27.3363 8.10156 26.4613 7.44531 25.0159 7.44531H23.6878V5.94531H24.9769C26.2191 5.94531 27.0472 5.24219 27.0472 4.25781V4.24219C27.0472 3.21094 26.3519 2.60156 25.1488 2.60156C23.9613 2.60156 23.1409 3.23438 23.0394 4.24219L23.0316 4.32031H21.1566L21.1644 4.23438C21.3363 2.28125 22.8753 1 25.1488 1C27.4691 1 28.9769 2.21094 28.9769 3.97656V3.99219C28.9769 5.39062 27.9691 6.32031 26.6175 6.60156V6.64062C28.2738 6.79688 29.3753 7.78125 29.3753 9.34375V9.35938C29.3753 11.3438 27.6644 12.7266 25.1644 12.7266ZM35.3209 12.7812C32.6413 12.7812 31.0319 10.5078 31.0319 6.86719V6.85156C31.0319 3.21094 32.6413 0.945312 35.3209 0.945312C38.0006 0.945312 39.6256 3.21094 39.6256 6.85156V6.86719C39.6256 10.5078 38.0006 12.7812 35.3209 12.7812ZM35.3209 11.1484C36.7584 11.1484 37.5944 9.53906 37.5944 6.86719V6.85156C37.5944 4.17969 36.7584 2.58594 35.3209 2.58594C33.8834 2.58594 33.0631 4.17969 33.0631 6.85156V6.86719C33.0631 9.53906 33.8834 11.1484 35.3209 11.1484Z" fill="black"/>
</g>
<defs>
<clipPath id="clip0_252_1247">
<rect width="40" height="13" fill="white"/>
</clipPath>
</defs>
</svg>
