<svg width="17" height="14" viewBox="0 0 17 14" fill="none" xmlns="http://www.w3.org/2000/svg">
<path d="M14.8434 2.54384C14.4768 2.22895 14.0417 1.97916 13.5627 1.80874C13.0837 1.63832 12.5704 1.5506 12.0519 1.5506C11.5335 1.5506 11.0201 1.63832 10.5411 1.80874C10.0621 1.97916 9.62698 2.22895 9.26046 2.54384L8.49981 3.19703L7.73916 2.54384C6.99882 1.90809 5.9947 1.55093 4.94771 1.55093C3.90071 1.55093 2.89659 1.90809 2.15626 2.54384C1.41592 3.17959 1 4.04185 1 4.94093C1 5.84002 1.41592 6.70228 2.15626 7.33803L2.91691 7.99122L8.49981 12.7854L14.0827 7.99122L14.8434 7.33803C15.21 7.02329 15.5009 6.6496 15.6994 6.2383C15.8979 5.82699 16 5.38615 16 4.94093C16 4.49572 15.8979 4.05487 15.6994 3.64357C15.5009 3.23227 15.21 2.85858 14.8434 2.54384Z" stroke="black" stroke-width="2" stroke-linecap="round" stroke-linejoin="round"/>
</svg>
