<svg width="17" height="14" viewBox="0 0 17 14" fill="none" xmlns="http://www.w3.org/2000/svg">
<path d="M14.8434 2.20781C14.4768 1.89292 14.0417 1.64313 13.5627 1.47271C13.0837 1.30229 12.5704 1.21457 12.0519 1.21457C11.5335 1.21457 11.0201 1.30229 10.5411 1.47271C10.0621 1.64313 9.62698 1.89292 9.26046 2.20781L8.49981 2.861L7.73916 2.20781C6.99882 1.57206 5.9947 1.2149 4.94771 1.2149C3.90071 1.2149 2.89659 1.57206 2.15626 2.20781C1.41592 2.84356 1 3.70582 1 4.6049C1 5.50399 1.41592 6.36625 2.15626 7.002L2.91691 7.65519L8.49981 12.4494L14.0827 7.65519L14.8434 7.002C15.21 6.68726 15.5009 6.31357 15.6994 5.90227C15.8979 5.49097 16 5.05012 16 4.6049C16 4.15969 15.8979 3.71884 15.6994 3.30754C15.5009 2.89624 15.21 2.52255 14.8434 2.20781Z" stroke="black" stroke-width="2" stroke-linecap="round" stroke-linejoin="round"/>
</svg>
