<svg width="17" height="15" viewBox="0 0 17 15" fill="none" xmlns="http://www.w3.org/2000/svg">
<path d="M14.8434 2.87584C14.4768 2.56095 14.0417 2.31116 13.5627 2.14074C13.0837 1.97032 12.5704 1.8826 12.0519 1.8826C11.5335 1.8826 11.0201 1.97032 10.5411 2.14074C10.0621 2.31116 9.62698 2.56095 9.26046 2.87584L8.49981 3.52903L7.73916 2.87584C6.99882 2.24009 5.9947 1.88293 4.94771 1.88293C3.90071 1.88293 2.89659 2.24009 2.15626 2.87584C1.41592 3.51159 1 4.37385 1 5.27293C1 6.17202 1.41592 7.03428 2.15626 7.67003L2.91691 8.32322L8.49981 13.1174L14.0827 8.32322L14.8434 7.67003C15.21 7.35529 15.5009 6.9816 15.6994 6.5703C15.8979 6.159 16 5.71815 16 5.27293C16 4.82772 15.8979 4.38687 15.6994 3.97557C15.5009 3.56427 15.21 3.19058 14.8434 2.87584Z" stroke="black" stroke-width="2" stroke-linecap="round" stroke-linejoin="round"/>
</svg>
