<svg width="19" height="13" viewBox="0 0 19 13" fill="none" xmlns="http://www.w3.org/2000/svg">
<g clip-path="url(#clip0_21_58)">
<path fill-rule="evenodd" clip-rule="evenodd" d="M9.04978 3.08753C11.5163 3.08764 13.8885 4.05505 15.6762 5.78982C15.8108 5.92375 16.0259 5.92206 16.1585 5.78603L17.4453 4.46045C17.5124 4.39146 17.5498 4.298 17.5493 4.20076C17.5487 4.10353 17.5102 4.01052 17.4423 3.94234C12.7504 -0.647448 5.34839 -0.647448 0.656479 3.94234C0.588514 4.01047 0.549951 4.10345 0.549324 4.20069C0.548697 4.29792 0.586059 4.39141 0.65314 4.46045L1.94028 5.78603C2.07277 5.92226 2.2881 5.92396 2.42263 5.78982C4.21047 4.05494 6.58298 3.08752 9.04978 3.08753ZM9.08523 7.08937C10.4404 7.08929 11.7473 7.60346 12.7518 8.53199C12.8877 8.66376 13.1017 8.66091 13.2342 8.52555L14.5194 7.19997C14.5871 7.13044 14.6247 7.03611 14.6237 6.9381C14.6227 6.84008 14.5833 6.74656 14.5143 6.67844C11.4552 3.77385 6.71784 3.77385 3.65876 6.67844C3.58967 6.74656 3.55024 6.84013 3.54933 6.93817C3.54843 7.03622 3.58611 7.13054 3.65394 7.19997L4.93885 8.52555C5.0713 8.66091 5.28534 8.66376 5.42121 8.53199C6.4251 7.60408 7.73091 7.08995 9.08523 7.08937ZM11.6988 9.67672C11.7008 9.77501 11.6629 9.86977 11.5942 9.93863L9.37097 12.2289C9.30579 12.2962 9.21694 12.334 9.12423 12.334C9.03151 12.334 8.94266 12.2962 8.87748 12.2289L6.65384 9.93863C6.58515 9.86972 6.54736 9.77492 6.5494 9.67663C6.55143 9.57834 6.59311 9.48527 6.6646 9.41938C8.08447 8.19354 10.164 8.19354 11.5838 9.41938C11.6552 9.48532 11.6969 9.57843 11.6988 9.67672Z" fill="black"/>
</g>
<defs>
<clipPath id="clip0_21_58">
<rect width="18" height="12" fill="white" transform="translate(0.5 0.5)"/>
</clipPath>
</defs>
</svg>
